<svg xmlns="http://www.w3.org/2000/svg" xmlns:xlink="http://www.w3.org/1999/xlink" contentStyleType="text/css" data-diagram-type="CLASS" height="249px" preserveAspectRatio="none" style="width:239px;height:249px;background:#FFFFFF;" version="1.1" viewBox="0 0 239 249" width="239px" zoomAndPan="magnify"><defs/><g><!--class Place--><g class="entity" data-entity="Place" data-source-line="83" data-uid="ent0002" id="entity_Place"><rect fill="#FFFFFF" height="87.9063" rx="2.5" ry="2.5" style="stroke:#000000;stroke-width:1;" width="102.2402" x="7" y="154.9"/><ellipse cx="39.1512" cy="169.9" fill="#C2C2C2" rx="10" ry="10" style="stroke:#181818;stroke-width:1;"/><path d="M41.5887,174.4 L36.1355,174.4 L36.1355,165.65 L41.5887,165.65 L41.5887,167.1813 L37.8699,167.1813 L37.8699,169.0563 L41.2293,169.0563 L41.2293,170.5875 L37.8699,170.5875 L37.8699,172.8688 L41.5887,172.8688 L41.5887,174.4 Z " fill="#000000"/><text fill="#000000" font-family="Helvetica" font-size="12" lengthAdjust="spacing" textLength="31.9043" x="56.1848" y="174.0543">Place</text><line style="stroke:#000000;stroke-width:1;" x1="8" x2="108.2402" y1="184.9" y2="184.9"/><text fill="#000000" font-family="Helvetica" font-size="12" lengthAdjust="spacing" textLength="65.6426" x="13" y="200.0387">id: number</text><text fill="#000000" font-family="Helvetica" font-size="12" lengthAdjust="spacing" textLength="76.3359" x="13" y="214.0074">name: string</text><text fill="#000000" font-family="Helvetica" font-size="12" lengthAdjust="spacing" textLength="90.2402" x="13" y="227.9762">rating: number</text><line style="stroke:#000000;stroke-width:1;" x1="8" x2="108.2402" y1="234.8063" y2="234.8063"/></g><!--class Transaction--><g class="entity" data-entity="Transaction" data-source-line="89" data-uid="ent0003" id="entity_Transaction"><rect fill="#FFFFFF" height="87.9063" rx="2.5" ry="2.5" style="stroke:#000000;stroke-width:1;" width="112.9922" x="66.62" y="7"/><ellipse cx="86.281" cy="22" fill="#C2C2C2" rx="10" ry="10" style="stroke:#181818;stroke-width:1;"/><path d="M88.7185,26.5 L83.2654,26.5 L83.2654,17.75 L88.7185,17.75 L88.7185,19.2813 L84.9998,19.2813 L84.9998,21.1563 L88.3592,21.1563 L88.3592,22.6875 L84.9998,22.6875 L84.9998,24.9688 L88.7185,24.9688 L88.7185,26.5 Z " fill="#000000"/><text fill="#000000" font-family="Helvetica" font-size="12" lengthAdjust="spacing" textLength="70.4121" x="100.539" y="26.1543">Transaction</text><line style="stroke:#000000;stroke-width:1;" x1="67.62" x2="178.6122" y1="37" y2="37"/><text fill="#000000" font-family="Helvetica" font-size="12" lengthAdjust="spacing" textLength="65.6426" x="72.62" y="52.1387">id: number</text><text fill="#000000" font-family="Helvetica" font-size="12" lengthAdjust="spacing" textLength="100.9922" x="72.62" y="66.1074">amount: number</text><text fill="#000000" font-family="Helvetica" font-size="12" lengthAdjust="spacing" textLength="63.5977" x="72.62" y="80.0762">date: Date</text><line style="stroke:#000000;stroke-width:1;" x1="67.62" x2="178.6122" y1="86.9063" y2="86.9063"/></g><!--class User--><g class="entity" data-entity="User" data-source-line="95" data-uid="ent0004" id="entity_User"><rect fill="#FFFFFF" height="73.9375" rx="2.5" ry="2.5" style="stroke:#000000;stroke-width:1;" width="88.3359" x="143.95" y="161.89"/><ellipse cx="171.893" cy="176.89" fill="#C2C2C2" rx="10" ry="10" style="stroke:#181818;stroke-width:1;"/><path d="M174.3305,181.39 L168.8773,181.39 L168.8773,172.64 L174.3305,172.64 L174.3305,174.1713 L170.6117,174.1713 L170.6117,176.0463 L173.9711,176.0463 L173.9711,177.5775 L170.6117,177.5775 L170.6117,179.8588 L174.3305,179.8588 L174.3305,181.39 Z " fill="#000000"/><text fill="#000000" font-family="Helvetica" font-size="12" lengthAdjust="spacing" textLength="27.3516" x="187.9914" y="181.0443">User</text><line style="stroke:#000000;stroke-width:1;" x1="144.95" x2="231.2859" y1="191.89" y2="191.89"/><text fill="#000000" font-family="Helvetica" font-size="12" lengthAdjust="spacing" textLength="53.2559" x="149.95" y="207.0287">id: string</text><text fill="#000000" font-family="Helvetica" font-size="12" lengthAdjust="spacing" textLength="76.3359" x="149.95" y="220.9974">name: string</text><line style="stroke:#000000;stroke-width:1;" x1="144.95" x2="231.2859" y1="227.8275" y2="227.8275"/></g><!--reverse link Transaction to Place--><g class="link" data-entity-1="Transaction" data-entity-2="Place" data-source-line="100" data-uid="lnk5" id="link_Transaction_Place"><path codeLine="100" d="M100.5358,102.6382 C92.1958,121.3682 85.71,135.93 77.37,154.64" fill="none" id="Transaction-backto-Place" style="stroke:#000000;stroke-width:1;"/><line style="stroke:#000000;stroke-width:1;" x1="98.5088" x2="105.817" y1="97.357" y2="100.6112"/><line style="stroke:#000000;stroke-width:1;" x1="97.2885" x2="104.5967" y1="100.0976" y2="103.3518"/><line style="stroke:#000000;stroke-width:1;" x1="100.5358" x2="103.79" y1="102.6382" y2="95.33"/><text fill="#000000" font-family="Helvetica" font-size="12" lengthAdjust="spacing" textLength="32.2852" x="45.9531" y="144.1456">place</text></g><!--reverse link Transaction to User--><g class="link" data-entity-1="Transaction" data-entity-2="User" data-source-line="101" data-uid="lnk6" id="link_Transaction_User"><path codeLine="101" d="M145.7052,102.6378 C155.1352,123.8078 163.09,141.67 172.04,161.77" fill="none" id="Transaction-backto-User" style="stroke:#000000;stroke-width:1;"/><line style="stroke:#000000;stroke-width:1;" x1="140.4237" x2="147.7315" y1="100.6115" y2="97.3563"/><line style="stroke:#000000;stroke-width:1;" x1="141.6444" x2="148.9522" y1="103.3519" y2="100.0967"/><line style="stroke:#000000;stroke-width:1;" x1="145.7052" x2="142.45" y1="102.6378" y2="95.33"/><text fill="#000000" font-family="Helvetica" font-size="12" lengthAdjust="spacing" textLength="26.1738" x="140.0606" y="151.0184">user</text></g><!--SRC=[jLHDRzD043tNlsAKIqwfLOwvjLG8fD9M8eZpP3ssjrdlcDtP1jFotnadIcf3g1gW5yj-Enzldj_E54eEAoW3Dr2Bj76UvvMLEYrF3JTvWo8rhUyuKbiBTev3tZhqaXetYz8vofUEbneNXKA-GKxRb4tXccMMAjV1BXmsXr1GYSb9pBAuihx5WCqEUyTUhh4XU4_kdiGQF1ppoNudE7ipE8pqDP4tz95Yn8hEdQqy6FBAQH3Li6TJwwG44X8DysiiU6rz1IMwI4DkQCJUM-dW8Jiv3u7NRrb5W0k7PfMTNEYp2fnyiOM_r5P8OGu5XN7a1bhKrgoyieIpxCSlRJJsuOYAe_GKoM2aLoPf72hu6Zq6JNXvHqR-iSk8Tgk8kk9OTQUBcyiRw7rDB5qxSeNUZPQz6koPeXzw-vLewENQFAKyFv5deRytInGK-fy2xwxVKJLlCUWLjwrkXvSBT6LBkhB-W3wZUeTSzwtF- -C8TgVyiRAg1_hjSEkskG2sc8DFpL9N3u3NTJPNmOFk5lqCAFgoFtzANmJqiLyrx7ylWerIaG5GwF-RmwK-1oK-Hmhxt7t74G4D7ZPwV9pDODBsp2VR0GuSwsO9aqtndm00]--></g></svg>